<?xml version="1.0" encoding="utf-8" ?>
<svg xmlns="http://www.w3.org/2000/svg" xmlns:xlink="http://www.w3.org/1999/xlink" width="12" height="10.4998" viewBox="0 0 12 10.4998">
	<path transform="matrix(1 0 0 1 0.75 5.25)" d="M6.53033 -5.03033L11.0303 -0.53033Q11.1358 -0.424841 11.1929 -0.287013Q11.25 -0.149184 11.25 0Q11.25 0.149184 11.1929 0.287013Q11.1358 0.424841 11.0303 0.53033L6.53033 5.03033Q6.4781 5.08256 6.41668 5.1236Q6.35526 5.16464 6.28701 5.19291Q6.21877 5.22118 6.14632 5.23559Q6.07387 5.25 6 5.25Q5.92613 5.25 5.85368 5.23559Q5.78123 5.22118 5.71299 5.19291Q5.64474 5.16464 5.58332 5.1236Q5.5219 5.08256 5.46967 5.03033Q5.41744 4.9781 5.3764 4.91668Q5.33536 4.85526 5.30709 4.78701Q5.27882 4.71877 5.26441 4.64632Q5.25 4.57387 5.25 4.5Q5.25 4.42613 5.26441 4.35368Q5.27882 4.28123 5.30709 4.21299Q5.33536 4.14474 5.3764 4.08332Q5.41744 4.0219 5.46967 3.96967L8.68934 0.75L0 0.75C-0.41421 0.75 -0.75 0.41421 -0.75 0C-0.75 -0.41421 -0.41421 -0.75 0 -0.75L8.68934 -0.75L5.46967 -3.96967Q5.41744 -4.0219 5.3764 -4.08332Q5.33536 -4.14474 5.30709 -4.21299Q5.27882 -4.28123 5.26441 -4.35368Q5.25 -4.42613 5.25 -4.5Q5.25 -4.57387 5.26441 -4.64632Q5.27882 -4.71877 5.30709 -4.78701Q5.33536 -4.85526 5.3764 -4.91668Q5.41744 -4.9781 5.46967 -5.03033Q5.5219 -5.08256 5.58332 -5.1236Q5.64474 -5.16464 5.71299 -5.19291Q5.78123 -5.22118 5.85368 -5.23559Q5.92613 -5.25 6 -5.25Q6.07387 -5.25 6.14632 -5.23559Q6.21877 -5.22118 6.28701 -5.19291Q6.35526 -5.16464 6.41668 -5.1236Q6.4781 -5.08256 6.53033 -5.03033Z" fill-rule="evenodd" fill="rgb(255, 255, 255)"/>
</svg>
