<svg width="40" height="40" viewBox="0 0 40 40" fill="none" xmlns="http://www.w3.org/2000/svg">
<path d="M0 20C0 8.95431 8.95431 0 20 0C31.0457 0 40 8.95431 40 20C40 31.0457 31.0457 40 20 40C8.95431 40 0 31.0457 0 20Z" fill="white"/>
<path d="M11.5 20C11.5 15.3056 15.3056 11.5 20 11.5C24.6944 11.5 28.5 15.3056 28.5 20C28.5 24.6944 24.6944 28.5 20 28.5C15.3056 28.5 11.5 24.6944 11.5 20Z" fill="#E5E5E5"/>
<path d="M11.5 20C11.5 15.3056 15.3056 11.5 20 11.5C24.6944 11.5 28.5 15.3056 28.5 20C28.5 24.6944 24.6944 28.5 20 28.5C15.3056 28.5 11.5 24.6944 11.5 20Z" stroke="#D4D4D4"/>
</svg>
