<svg width="17" height="18" viewBox="0 0 17 18" fill="none" xmlns="http://www.w3.org/2000/svg">
<g clip-path="url(#clip0_142_63)">
<path d="M14.6672 4.49856V15.7986C14.6672 16.6497 13.9773 17.3396 13.1263 17.3396H3.88076C3.02973 17.3396 2.33984 16.6497 2.33984 15.7986V4.49856C2.33984 3.64752 3.02973 2.95764 3.88076 2.95764H6.44896C6.44896 1.82474 7.37063 0.903076 8.50352 0.903076C9.63642 0.903076 10.5581 1.82474 10.5581 2.95764H13.1263C13.9773 2.95764 14.6672 3.64752 14.6672 4.49856ZM8.50352 2.18718C8.078 2.18718 7.73306 2.53212 7.73306 2.95764C7.73306 3.38315 8.078 3.7281 8.50352 3.7281C8.92904 3.7281 9.27398 3.38315 9.27398 2.95764C9.27398 2.53212 8.92904 2.18718 8.50352 2.18718ZM11.5854 5.84686V5.20481C11.5854 5.15373 11.5651 5.10473 11.5289 5.06861C11.4928 5.03249 11.4438 5.0122 11.3927 5.0122H5.6143C5.56321 5.0122 5.51422 5.03249 5.4781 5.06861C5.44198 5.10473 5.42168 5.15373 5.42168 5.20481V5.84686C5.42168 5.89794 5.44198 5.94694 5.4781 5.98306C5.51422 6.01918 5.56321 6.03948 5.6143 6.03948H11.3927C11.4438 6.03948 11.4928 6.01918 11.5289 5.98306C11.5651 5.94694 11.5854 5.89794 11.5854 5.84686Z" fill="white"/>
</g>
<defs>
<clipPath id="clip0_142_63">
<rect width="16.4365" height="16.4365" fill="white" transform="translate(0.285156 0.903076)"/>
</clipPath>
</defs>
</svg>
